<?xml version="1.0" encoding="UTF-8" standalone="no"?>
<svg
   xmlns:dc="http://purl.org/dc/elements/1.1/"
   xmlns:cc="http://creativecommons.org/ns#"
   xmlns:rdf="http://www.w3.org/1999/02/22-rdf-syntax-ns#"
   xmlns:svg="http://www.w3.org/2000/svg"
   xmlns="http://www.w3.org/2000/svg"
   height="78.050003"
   width="77.199997"
   id="svg4183"
   xml:space="preserve"
   viewBox="0 0 77.199997 78.050003"
   y="0px"
   x="0px"
   version="1.1"><metadata
     id="metadata4197"><rdf:RDF><cc:Work
         rdf:about=""><dc:format>image/svg+xml</dc:format><dc:type
           rdf:resource="http://purl.org/dc/dcmitype/StillImage" /><dc:title></dc:title></cc:Work></rdf:RDF></metadata><defs
     id="defs4195" /><g
     style="fill:#ffffff"
     transform="translate(-11.45,-10.95)"
     id="g4185"><path
       style="fill:#ffffff"
       id="path4187"
       d="m 87.8,12.8 c -1,-1 -2.6,-1 -3.5,0 L 50.5,46.5 15.8,11.7 c -1,-1 -2.6,-1 -3.5,0 -1,1 -1,2.6 0,3.5 L 47,50 12.2,84.8 c -1,1 -1,2.6 0,3.5 0.5,0.5 1.1,0.7 1.8,0.7 0.7,0 1.3,-0.2 1.8,-0.7 L 50.6,53.5 84.3,87.2 c 0.5,0.5 1.1,0.7 1.8,0.7 0.7,0 1.3,-0.2 1.8,-0.7 1,-1 1,-2.6 0,-3.5 L 54.1,50 87.8,16.3 c 0.9,-1 0.9,-2.6 0,-3.5 z" /></g></svg>
