<?xml version="1.0" encoding="UTF-8" standalone="no"?>
<svg
   xmlns:dc="http://purl.org/dc/elements/1.1/"
   xmlns:cc="http://creativecommons.org/ns#"
   xmlns:rdf="http://www.w3.org/1999/02/22-rdf-syntax-ns#"
   xmlns:svg="http://www.w3.org/2000/svg"
   xmlns="http://www.w3.org/2000/svg"
   height="79.5"
   width="51"
   id="svg4183"
   xml:space="preserve"
   viewBox="0 0 51 79.5"
   y="0px"
   x="0px"
   version="1.1"><metadata
     id="metadata4197"><rdf:RDF><cc:Work
         rdf:about=""><dc:format>image/svg+xml</dc:format><dc:type
           rdf:resource="http://purl.org/dc/dcmitype/StillImage" /><dc:title></dc:title></cc:Work></rdf:RDF></metadata><defs
     id="defs4195" /><style
     id="style4185"
     type="text/css">
	.st0{fill:none;}
	.st1{fill:#FFFFFF;}
</style><path
     style="fill:#4b4b4e;fill-opacity:1"
     id="path4187"
     d="M 25.5,0 C 11.4,0 0,11.4 0,25.6 c 0,3.7 0.8,7.1 2.1,10.3 l 22,42.7 c 0.6,1.2 2.2,1.2 2.8,0 l 22,-42.7 C 50.3,32.8 51,29.3 51,25.6 51,11.4 39.6,0 25.5,0 Z m 0,38.3 c -7.1,0 -12.9,-5.8 -12.9,-12.9 0,-7.1 5.8,-12.9 12.9,-12.9 7.1,0 12.9,5.8 12.9,12.9 0,7.1 -5.8,12.9 -12.9,12.9 z" /></svg>