<?xml version="1.0" encoding="UTF-8" standalone="no"?>
<svg
   xmlns:dc="http://purl.org/dc/elements/1.1/"
   xmlns:cc="http://creativecommons.org/ns#"
   xmlns:rdf="http://www.w3.org/1999/02/22-rdf-syntax-ns#"
   xmlns:svg="http://www.w3.org/2000/svg"
   xmlns="http://www.w3.org/2000/svg"
   height="86.440979"
   width="53.958313"
   id="svg4169"
   xml:space="preserve"
   enable-background="new 0 0 100 100"
   viewBox="0 0 53.958313 86.440979"
   y="0px"
   x="0px"
   version="1.1"><metadata
     id="metadata4181"><rdf:RDF><cc:Work
         rdf:about=""><dc:format>image/svg+xml</dc:format><dc:type
           rdf:resource="http://purl.org/dc/dcmitype/StillImage" /><dc:title></dc:title></cc:Work></rdf:RDF></metadata><defs
     id="defs4179" /><path
     style="fill:#ffffff"
     id="path4171"
     d="m 11.791315,86.44098 -0.03,0 c -0.015,0 -1.43,-0.066 -2.0079995,-0.486 l -0.149,-0.108 -0.1,-0.144 c -0.331,-0.476 -0.59,-1.663 -0.616,-2.43 -0.041,-0.241 -12.301,-18.47 -7.95700005,-38.052 l 1.20700005,-3.472 c 0,0 0.051,-0.27 0.309,-0.215 0.177,0.037 0.305,0.253 0.305,0.253 l 5.287,14.307 c 0.685,1.851 3.0519995,3.766 5.8259995,3.766 0.717,0 1.437,-0.126 2.14,-0.374 0.926,-0.327 2.114,-1.208 2.682,-2.443 l 0.453,-0.986 1.103,0.447 c 1.549,0.629 3.563,0.601 5.691,-0.102 4.095,-1.352 3.65,-4.037 2.806,-6.226 -0.118,-0.308 -0.388,-1.06 -0.665,-1.841 l -0.509,-1.435 2.196,0.163 c 1.516,0.143 3.36,0.032 4.358,-0.072 l 0.797,-0.084 3.251,5.53 -1.339,0.344 c -2.789,0.717 -7.781,2.989 -9.875,10.157 -0.052,0.176 0.017,0.315 0.063,0.382 0.045,0.067 0.151,0.186 0.353,0.231 0.319,0.072 0.627,-0.103 0.702,-0.364 2.51,-8.591 9.067,-9.644 11.018,-9.762 0.319,-0.019 0.601,-0.254 0.603,-0.502 0.002,-0.126 -0.052,-0.221 -0.097,-0.28 l -0.07,-0.103 -3.782,-6.432 c -0.099,-0.169 -0.294,-0.274 -0.51,-0.274 l -0.119,0.011 c -0.158,0.025 -1.59,0.241 -3.487,0.241 -6.049,0 -9.751,-2.126 -10.423,-5.986 l -0.166,-0.951 1.078,-0.19 c 3.385,-0.595 12.016,-2.086 19.017,-3.099 0.254,-0.036 0.527,-0.038 0.735,-0.023 l 0.953,0.568 c 1.483,2.688 8.249,16.911 10.32,21.863 0.247,0.59 0.615,2.098 0.047,2.866 -2.852,3.854 -11.03,14.294 -11.071,14.348 -0.998,1.533 -1.039,3.478 -1.075,5.194 -0.03,1.465 -0.552,3.285 -1.192,4.11 -0.829,1.071 -1.846,1.473 -2.245,1.596 l -0.186,0.058 -25.629,10e-4 z m 1.81,-27.545 c -2.443,0 -3.9089995,-1.608 -4.4649995,-3.113 l -6.212,-16.858 c -0.411,-2.513 0.806,-4.312 3.339,-4.936 2.16,-0.526 4.4319995,1.114 5.3899995,3.882 l 0.689,1.899 c 1.169,3.303 3.249,9.152 4.089,11.289 l 1.282,3.538 c 0.711,2.183 -0.966,3.582 -2.264,3.997 -0.628,0.2 -1.251,0.302 -1.848,0.302 z m 6.035,-4.052 c -1.051,-1.539 -2.055,-3.973 -2.098,-4.076 l -4.066,-11.218 c -0.894,-2.522 -1.611,-4.57 -1.778,-5.047 l -0.038,-0.147 c -0.695,-4.1 2.164,-5.253 3.931,-5.575 0.251,-0.046 0.507,-0.069 0.76,-0.069 2.853,0 4.582,2.777 5.097,4.246 l 1.691,4.794 -2.801,0.494 c -0.389,0.07 -0.589,0.314 -0.552,0.574 0.579,4.038 2.576,6.609 5.936,7.641 l 0.549,0.168 0.171,0.487 c 0.367,1.046 1.011,2.87 1.204,3.372 0.851,2.204 0.79,3.89 -2.245,5.019 -2.71,1.006 -5.201,0.158 -5.761,-0.663 z m 26.738,-13.285 -2.01,-4.066 c -0.74,-1.51 -1.056,-2.11 -1.189,-2.348 -0.549,-0.281 -1.218,-0.327 -1.591,-0.327 -0.228,0 -0.445,0.016 -0.639,0.044 -1.211,0.175 -16.687,2.693 -16.687,2.693 l -0.292,-0.892 c -3.359,-10.288 -9.788,-30.0740002 -10.068,-31.3220002 -0.593,-2.786 0.788,-4.69699998 3.785,-5.25199998 2.347,-0.438 4.35,0.762 5.279,3.13699998 0.372,0.946 7.549,20.5840002 10.962,30.8580002 0.02,0.059 2.158,-0.26 2.158,-0.26 0.072,-0.083 0.097,-0.132 0.105,-0.159 l 8.061,-25.1840002 c 1.112,-3.574 2.457,-7.072 5.524,-7.072 0.181,0 0.367,0.013 0.558,0.041 1.379,0.202 2.393,0.701 3.013,1.483 0.592,0.746 0.72,1.695 0.539,2.777 -1.285,7.6770002 -7.508,35.8490002 -7.508,35.8490002 z" /></svg>